<svg width="336" height="55" viewBox="0 0 336 55" fill="none" xmlns="http://www.w3.org/2000/svg">
<path fill-rule="evenodd" clip-rule="evenodd" d="M331 24C331 15.5992 331 11.3988 329.365 8.19014C327.927 5.36771 325.632 3.073 322.81 1.6349C319.601 0 315.401 0 307 0H24C15.5992 0 11.3988 0 8.19016 1.6349C5.36771 3.073 3.073 5.36771 1.63492 8.19014C0 11.3988 0 15.5992 0 24V31C0 39.4008 0 43.6012 1.63492 46.8099C3.073 49.6323 5.36771 51.927 8.19016 53.3651C11.3988 55 15.5992 55 24 55H307C315.401 55 319.601 55 322.81 53.3651C325.632 51.927 327.927 49.6323 329.365 46.8099C331 43.6012 331 39.4008 331 31V24Z" fill="#00A3FF"/>
<path fill-rule="evenodd" clip-rule="evenodd" d="M331.029 41H316C316 48.732 322.268 55 330 55H336V54.6709C334.569 53.4697 333.384 51.9871 332.526 50.3032C331.404 48.1003 331.107 45.3966 331.029 41Z" fill="#00A3FF"/>
<path d="M40.3111 25.1662H38.3168C38.2401 24.7401 38.0973 24.3651 37.8885 24.0412C37.6797 23.7173 37.424 23.4425 37.1214 23.2166C36.8189 22.9908 36.4801 22.8203 36.1051 22.7053C35.7344 22.5902 35.3402 22.5327 34.9226 22.5327C34.1683 22.5327 33.4929 22.7223 32.8963 23.1016C32.304 23.4808 31.8352 24.0369 31.4901 24.7699C31.1491 25.5028 30.9787 26.3977 30.9787 27.4545C30.9787 28.5199 31.1491 29.419 31.4901 30.152C31.8352 30.8849 32.3061 31.4389 32.9027 31.8139C33.4993 32.1889 34.1705 32.3764 34.9162 32.3764C35.3295 32.3764 35.7216 32.321 36.0923 32.2102C36.4673 32.0952 36.8061 31.9268 37.1087 31.7053C37.4112 31.4837 37.6669 31.2131 37.8757 30.8935C38.0888 30.5696 38.2358 30.1989 38.3168 29.7812L40.3111 29.7876C40.2045 30.4311 39.9979 31.0234 39.6911 31.5646C39.3885 32.1016 38.9986 32.5661 38.5213 32.9581C38.0483 33.3459 37.5071 33.6463 36.8977 33.8594C36.2884 34.0724 35.6236 34.179 34.9034 34.179C33.7699 34.179 32.7599 33.9105 31.8736 33.3736C30.9872 32.8324 30.2884 32.0589 29.777 31.0533C29.2699 30.0476 29.0163 28.848 29.0163 27.4545C29.0163 26.0568 29.272 24.8572 29.7834 23.8558C30.2947 22.8501 30.9936 22.0788 31.88 21.5419C32.7663 21.0007 33.7741 20.7301 34.9034 20.7301C35.598 20.7301 36.2457 20.8303 36.8466 21.0305C37.4517 21.2266 37.995 21.5163 38.4766 21.8999C38.9581 22.2791 39.3565 22.7436 39.6719 23.2933C39.9872 23.8388 40.2003 24.4631 40.3111 25.1662ZM42.5211 34V24.1818H50.5304V34H48.6575V25.831H44.3812V34H42.5211ZM55.9428 34.2173C55.3207 34.2173 54.7582 34.1023 54.2553 33.8722C53.7525 33.6378 53.354 33.299 53.06 32.8558C52.7702 32.4126 52.6254 31.8693 52.6254 31.2259C52.6254 30.6719 52.7319 30.2159 52.945 29.858C53.158 29.5 53.4457 29.2166 53.8079 29.0078C54.1701 28.799 54.5749 28.6413 55.0224 28.5348C55.4698 28.4283 55.9258 28.3473 56.3903 28.2919C56.9783 28.2237 57.4556 28.1683 57.8221 28.1257C58.1886 28.0788 58.4549 28.0043 58.6211 27.902C58.7873 27.7997 58.8704 27.6335 58.8704 27.4034V27.3587C58.8704 26.8004 58.7127 26.3679 58.3974 26.0611C58.0863 25.7543 57.6218 25.6009 57.0039 25.6009C56.3604 25.6009 55.8533 25.7436 55.4826 26.0291C55.1161 26.3104 54.8626 26.6236 54.7219 26.9688L52.9258 26.5597C53.1388 25.9631 53.4499 25.4815 53.859 25.1151C54.2724 24.7443 54.7475 24.4759 55.2844 24.3097C55.8214 24.1392 56.386 24.054 56.9783 24.054C57.3704 24.054 57.7859 24.1009 58.2248 24.1946C58.668 24.2841 59.0813 24.4503 59.4648 24.6932C59.8526 24.9361 60.1701 25.2834 60.4173 25.7351C60.6644 26.1825 60.788 26.7642 60.788 27.4801V34H58.9215V32.6577H58.8448C58.7212 32.9048 58.5359 33.1477 58.2887 33.3864C58.0415 33.625 57.7241 33.8232 57.3363 33.9808C56.9485 34.1385 56.484 34.2173 55.9428 34.2173ZM56.3583 32.6832C56.8867 32.6832 57.3384 32.5788 57.7134 32.37C58.0927 32.1612 58.3803 31.8885 58.5763 31.5518C58.7766 31.2109 58.8768 30.8466 58.8768 30.4588V29.1932C58.8086 29.2614 58.6765 29.3253 58.4805 29.3849C58.2887 29.4403 58.0692 29.4893 57.8221 29.532C57.5749 29.5703 57.3342 29.6065 57.0998 29.6406C56.8654 29.6705 56.6694 29.696 56.5117 29.7173C56.141 29.7642 55.8022 29.843 55.4954 29.9538C55.1928 30.0646 54.9499 30.2244 54.7667 30.4332C54.5877 30.6378 54.4982 30.9105 54.4982 31.2514C54.4982 31.7244 54.6729 32.0824 55.0224 32.3253C55.3718 32.5639 55.8171 32.6832 56.3583 32.6832ZM67.4693 34.1982C66.519 34.1982 65.7008 33.983 65.0147 33.5526C64.3329 33.1179 63.8088 32.5192 63.4423 31.7564C63.0758 30.9936 62.8926 30.12 62.8926 29.1357C62.8926 28.1385 63.0801 27.2585 63.4551 26.4957C63.8301 25.7287 64.3585 25.13 65.0403 24.6996C65.7221 24.2692 66.5254 24.054 67.4501 24.054C68.1958 24.054 68.8606 24.1925 69.4444 24.4695C70.0282 24.7422 70.4991 25.1257 70.8571 25.62C71.2193 26.1143 71.4345 26.6918 71.5027 27.3523H69.6426C69.5403 26.892 69.3059 26.4957 68.9395 26.1634C68.5772 25.831 68.0914 25.6648 67.4821 25.6648C66.9494 25.6648 66.4828 25.8054 66.0822 26.0866C65.6859 26.3636 65.377 26.7599 65.1554 27.2756C64.9338 27.7869 64.823 28.392 64.823 29.0909C64.823 29.8068 64.9316 30.4247 65.149 30.9446C65.3663 31.4645 65.6731 31.8672 66.0694 32.1527C66.47 32.4382 66.9409 32.581 67.4821 32.581C67.8443 32.581 68.1724 32.5149 68.4664 32.3828C68.7647 32.2464 69.014 32.0526 69.2143 31.8011C69.4189 31.5497 69.5616 31.2472 69.6426 30.8935H71.5027C71.4345 31.5284 71.2278 32.0952 70.8826 32.5938C70.5375 33.0923 70.0751 33.4844 69.4956 33.7699C68.9203 34.0554 68.2449 34.1982 67.4693 34.1982ZM75.4194 31.3217L79.7468 24.1818H81.805V34H79.9322V26.8537L75.6239 34H73.5465V24.1818H75.4194V31.3217ZM91.9492 20.5256L92.7418 21.7337C92.4478 22.0021 92.1133 22.1939 91.7383 22.3089C91.3675 22.4197 90.9393 22.4901 90.4535 22.5199C89.9677 22.5455 89.4116 22.5689 88.7852 22.5902C88.0778 22.6115 87.4961 22.7649 87.0401 23.0504C86.5842 23.3317 86.2326 23.7493 85.9854 24.3033C85.7425 24.853 85.5849 25.5433 85.5124 26.3743H85.6339C85.9535 25.7649 86.3967 25.3089 86.9634 25.0064C87.5344 24.7038 88.1758 24.5526 88.8874 24.5526C89.68 24.5526 90.3853 24.7337 91.0032 25.0959C91.6211 25.4581 92.1069 25.9886 92.4606 26.6875C92.8185 27.3821 92.9975 28.2322 92.9975 29.2379C92.9975 30.2564 92.81 31.1364 92.435 31.8778C92.0643 32.6193 91.5401 33.1925 90.8626 33.5973C90.1893 33.9979 89.3945 34.1982 88.4783 34.1982C87.5621 34.1982 86.7631 33.9915 86.0813 33.5781C85.4038 33.1605 84.8775 32.5426 84.5025 31.7244C84.1317 30.9062 83.9464 29.8963 83.9464 28.6946V27.723C83.9464 25.4773 84.3469 23.7876 85.1481 22.6541C85.9492 21.5206 87.1467 20.9389 88.7404 20.9091C89.256 20.8963 89.7163 20.8942 90.1211 20.9027C90.5259 20.907 90.8796 20.8878 91.1822 20.8452C91.489 20.7983 91.7447 20.6918 91.9492 20.5256ZM88.4847 32.5938C89.0174 32.5938 89.4755 32.4595 89.859 32.1911C90.2468 31.9183 90.5451 31.5327 90.7539 31.0341C90.9627 30.5355 91.0671 29.9474 91.0671 29.2699C91.0671 28.6051 90.9627 28.0405 90.7539 27.576C90.5451 27.1115 90.2468 26.7578 89.859 26.5149C89.4712 26.2678 89.0067 26.1442 88.4656 26.1442C88.065 26.1442 87.707 26.2145 87.3917 26.3551C87.0763 26.4915 86.8058 26.6939 86.5799 26.9624C86.3583 27.2308 86.1857 27.5589 86.0621 27.9467C85.9428 28.3303 85.8789 28.7713 85.8704 29.2699C85.8704 30.2841 86.1026 31.0916 86.5671 31.6925C87.0359 32.2933 87.6751 32.5938 88.4847 32.5938ZM99.2681 34.1982C98.3477 34.1982 97.5444 33.9872 96.8583 33.5653C96.1722 33.1435 95.6396 32.5533 95.2603 31.7947C94.881 31.0362 94.6914 30.1499 94.6914 29.1357C94.6914 28.1172 94.881 27.2266 95.2603 26.4638C95.6396 25.701 96.1722 25.1087 96.8583 24.6868C97.5444 24.2649 98.3477 24.054 99.2681 24.054C100.189 24.054 100.992 24.2649 101.678 24.6868C102.364 25.1087 102.897 25.701 103.276 26.4638C103.655 27.2266 103.845 28.1172 103.845 29.1357C103.845 30.1499 103.655 31.0362 103.276 31.7947C102.897 32.5533 102.364 33.1435 101.678 33.5653C100.992 33.9872 100.189 34.1982 99.2681 34.1982ZM99.2745 32.5938C99.8711 32.5938 100.365 32.4361 100.757 32.1207C101.15 31.8054 101.439 31.3857 101.627 30.8615C101.819 30.3374 101.914 29.7599 101.914 29.1293C101.914 28.5028 101.819 27.9276 101.627 27.4034C101.439 26.875 101.15 26.451 100.757 26.1314C100.365 25.8118 99.8711 25.652 99.2745 25.652C98.6737 25.652 98.1751 25.8118 97.7788 26.1314C97.3867 26.451 97.0948 26.875 96.9031 27.4034C96.7156 27.9276 96.6218 28.5028 96.6218 29.1293C96.6218 29.7599 96.7156 30.3374 96.9031 30.8615C97.0948 31.3857 97.3867 31.8054 97.7788 32.1207C98.1751 32.4361 98.6737 32.5938 99.2745 32.5938ZM110.114 34.1982C109.193 34.1982 108.39 33.9872 107.704 33.5653C107.018 33.1435 106.485 32.5533 106.106 31.7947C105.727 31.0362 105.537 30.1499 105.537 29.1357C105.537 28.1172 105.727 27.2266 106.106 26.4638C106.485 25.701 107.018 25.1087 107.704 24.6868C108.39 24.2649 109.193 24.054 110.114 24.054C111.034 24.054 111.838 24.2649 112.524 24.6868C113.21 25.1087 113.742 25.701 114.122 26.4638C114.501 27.2266 114.691 28.1172 114.691 29.1357C114.691 30.1499 114.501 31.0362 114.122 31.7947C113.742 32.5533 113.21 33.1435 112.524 33.5653C111.838 33.9872 111.034 34.1982 110.114 34.1982ZM110.12 32.5938C110.717 32.5938 111.211 32.4361 111.603 32.1207C111.995 31.8054 112.285 31.3857 112.472 30.8615C112.664 30.3374 112.76 29.7599 112.76 29.1293C112.76 28.5028 112.664 27.9276 112.472 27.4034C112.285 26.875 111.995 26.451 111.603 26.1314C111.211 25.8118 110.717 25.652 110.12 25.652C109.519 25.652 109.021 25.8118 108.624 26.1314C108.232 26.451 107.941 26.875 107.749 27.4034C107.561 27.9276 107.468 28.5028 107.468 29.1293C107.468 29.7599 107.561 30.3374 107.749 30.8615C107.941 31.3857 108.232 31.8054 108.624 32.1207C109.021 32.4361 109.519 32.5938 110.12 32.5938ZM120.96 34.1982C120.039 34.1982 119.236 33.9872 118.55 33.5653C117.864 33.1435 117.331 32.5533 116.952 31.7947C116.572 31.0362 116.383 30.1499 116.383 29.1357C116.383 28.1172 116.572 27.2266 116.952 26.4638C117.331 25.701 117.864 25.1087 118.55 24.6868C119.236 24.2649 120.039 24.054 120.96 24.054C121.88 24.054 122.683 24.2649 123.369 24.6868C124.055 25.1087 124.588 25.701 124.967 26.4638C125.347 27.2266 125.536 28.1172 125.536 29.1357C125.536 30.1499 125.347 31.0362 124.967 31.7947C124.588 32.5533 124.055 33.1435 123.369 33.5653C122.683 33.9872 121.88 34.1982 120.96 34.1982ZM120.966 32.5938C121.563 32.5938 122.057 32.4361 122.449 32.1207C122.841 31.8054 123.131 31.3857 123.318 30.8615C123.51 30.3374 123.606 29.7599 123.606 29.1293C123.606 28.5028 123.51 27.9276 123.318 27.4034C123.131 26.875 122.841 26.451 122.449 26.1314C122.057 25.8118 121.563 25.652 120.966 25.652C120.365 25.652 119.866 25.8118 119.47 26.1314C119.078 26.451 118.786 26.875 118.594 27.4034C118.407 27.9276 118.313 28.5028 118.313 29.1293C118.313 29.7599 118.407 30.3374 118.594 30.8615C118.786 31.3857 119.078 31.8054 119.47 32.1207C119.866 32.4361 120.365 32.5938 120.966 32.5938ZM131.805 34.1982C130.885 34.1982 130.081 33.9872 129.395 33.5653C128.709 33.1435 128.177 32.5533 127.797 31.7947C127.418 31.0362 127.229 30.1499 127.229 29.1357C127.229 28.1172 127.418 27.2266 127.797 26.4638C128.177 25.701 128.709 25.1087 129.395 24.6868C130.081 24.2649 130.885 24.054 131.805 24.054C132.726 24.054 133.529 24.2649 134.215 24.6868C134.901 25.1087 135.434 25.701 135.813 26.4638C136.192 27.2266 136.382 28.1172 136.382 29.1357C136.382 30.1499 136.192 31.0362 135.813 31.7947C135.434 32.5533 134.901 33.1435 134.215 33.5653C133.529 33.9872 132.726 34.1982 131.805 34.1982ZM131.812 32.5938C132.408 32.5938 132.903 32.4361 133.295 32.1207C133.687 31.8054 133.976 31.3857 134.164 30.8615C134.356 30.3374 134.452 29.7599 134.452 29.1293C134.452 28.5028 134.356 27.9276 134.164 27.4034C133.976 26.875 133.687 26.451 133.295 26.1314C132.903 25.8118 132.408 25.652 131.812 25.652C131.211 25.652 130.712 25.8118 130.316 26.1314C129.924 26.451 129.632 26.875 129.44 27.4034C129.253 27.9276 129.159 28.5028 129.159 29.1293C129.159 29.7599 129.253 30.3374 129.44 30.8615C129.632 31.3857 129.924 31.8054 130.316 32.1207C130.712 32.4361 131.211 32.5938 131.812 32.5938ZM140.925 20.9091L140.759 30.2351H138.988L138.822 20.9091H140.925ZM139.877 34.1214C139.523 34.1214 139.221 33.9979 138.969 33.7507C138.718 33.4993 138.594 33.1967 138.598 32.843C138.594 32.4936 138.718 32.1953 138.969 31.9482C139.221 31.6967 139.523 31.571 139.877 31.571C140.222 31.571 140.52 31.6967 140.772 31.9482C141.023 32.1953 141.151 32.4936 141.155 32.843C141.151 33.0774 141.089 33.2926 140.97 33.4886C140.855 33.6804 140.701 33.8338 140.51 33.9489C140.318 34.0639 140.107 34.1214 139.877 34.1214ZM148.723 20.9091H150.679V30.5227H150.801L157.461 20.9091H159.289V34H157.314V24.3991H157.193L150.545 34H148.723V20.9091ZM161.058 36.8317V32.3445H161.857C162.062 32.157 162.235 31.9332 162.375 31.6733C162.52 31.4134 162.642 31.1044 162.74 30.7464C162.842 30.3885 162.927 29.9709 162.995 29.4936C163.063 29.0121 163.123 28.4624 163.174 27.8445L163.481 24.1818H170.154V32.3445H171.663V36.8317H169.796V34H162.95V36.8317H161.058ZM163.903 32.3445H168.288V25.8182H165.194L164.99 27.8445C164.892 28.8757 164.768 29.7706 164.619 30.5291C164.47 31.2834 164.231 31.8885 163.903 32.3445ZM174.739 37.6818C174.453 37.6818 174.194 37.6584 173.959 37.6115C173.725 37.5689 173.55 37.522 173.435 37.4709L173.895 35.9048C174.245 35.9986 174.556 36.0391 174.828 36.0263C175.101 36.0135 175.342 35.9112 175.551 35.7195C175.764 35.5277 175.951 35.2145 176.113 34.7798L176.35 34.1278L172.757 24.1818H174.803L177.289 31.8011H177.392L179.878 24.1818H181.93L177.884 35.3104C177.696 35.8217 177.458 36.2543 177.168 36.608C176.878 36.9659 176.533 37.2344 176.132 37.4134C175.732 37.5923 175.267 37.6818 174.739 37.6818ZM192.626 34.1982C191.705 34.1982 190.902 33.9872 190.216 33.5653C189.53 33.1435 188.997 32.5533 188.618 31.7947C188.238 31.0362 188.049 30.1499 188.049 29.1357C188.049 28.1172 188.238 27.2266 188.618 26.4638C188.997 25.701 189.53 25.1087 190.216 24.6868C190.902 24.2649 191.705 24.054 192.626 24.054C193.546 24.054 194.349 24.2649 195.035 24.6868C195.721 25.1087 196.254 25.701 196.633 26.4638C197.013 27.2266 197.202 28.1172 197.202 29.1357C197.202 30.1499 197.013 31.0362 196.633 31.7947C196.254 32.5533 195.721 33.1435 195.035 33.5653C194.349 33.9872 193.546 34.1982 192.626 34.1982ZM192.632 32.5938C193.229 32.5938 193.723 32.4361 194.115 32.1207C194.507 31.8054 194.797 31.3857 194.984 30.8615C195.176 30.3374 195.272 29.7599 195.272 29.1293C195.272 28.5028 195.176 27.9276 194.984 27.4034C194.797 26.875 194.507 26.451 194.115 26.1314C193.723 25.8118 193.229 25.652 192.632 25.652C192.031 25.652 191.532 25.8118 191.136 26.1314C190.744 26.451 190.452 26.875 190.26 27.4034C190.073 27.9276 189.979 28.5028 189.979 29.1293C189.979 29.7599 190.073 30.3374 190.26 30.8615C190.452 31.3857 190.744 31.8054 191.136 32.1207C191.532 32.4361 192.031 32.5938 192.632 32.5938ZM198.153 25.831V24.1818H206.437V25.831H203.235V34H201.368V25.831H198.153ZM208.459 34V24.1818H210.37V28.2983H211.29L214.531 24.1818H216.896L213.093 28.9567L216.941 34H214.569L211.61 30.0753H210.37V34H208.459ZM217.652 34L217.646 32.3445H217.997C218.27 32.3445 218.498 32.2869 218.681 32.1719C218.869 32.0526 219.022 31.8523 219.141 31.571C219.261 31.2898 219.352 30.902 219.416 30.4077C219.48 29.9091 219.527 29.2827 219.557 28.5284L219.729 24.1818H226.582V34H224.709V25.831H221.5L221.347 29.1676C221.308 29.9773 221.225 30.6847 221.097 31.2898C220.974 31.8949 220.793 32.3999 220.554 32.8047C220.315 33.2053 220.009 33.5057 219.634 33.706C219.259 33.902 218.803 34 218.266 34H217.652ZM231.003 31.3217L235.331 24.1818H237.389V34H235.516V26.8537L231.208 34H229.131V24.1818H231.003V31.3217ZM239.959 34V24.1818H241.87V28.2983H242.79L246.031 24.1818H248.396L244.593 28.9567L248.441 34H246.069L243.11 30.0753H241.87V34H239.959ZM252.783 34.2173C252.161 34.2173 251.598 34.1023 251.095 33.8722C250.592 33.6378 250.194 33.299 249.9 32.8558C249.61 32.4126 249.465 31.8693 249.465 31.2259C249.465 30.6719 249.572 30.2159 249.785 29.858C249.998 29.5 250.286 29.2166 250.648 29.0078C251.01 28.799 251.415 28.6413 251.862 28.5348C252.31 28.4283 252.766 28.3473 253.23 28.2919C253.818 28.2237 254.295 28.1683 254.662 28.1257C255.028 28.0788 255.295 28.0043 255.461 27.902C255.627 27.7997 255.71 27.6335 255.71 27.4034V27.3587C255.71 26.8004 255.553 26.3679 255.237 26.0611C254.926 25.7543 254.462 25.6009 253.844 25.6009C253.2 25.6009 252.693 25.7436 252.322 26.0291C251.956 26.3104 251.702 26.6236 251.562 26.9688L249.766 26.5597C249.979 25.9631 250.29 25.4815 250.699 25.1151C251.112 24.7443 251.587 24.4759 252.124 24.3097C252.661 24.1392 253.226 24.054 253.818 24.054C254.21 24.054 254.626 24.1009 255.065 24.1946C255.508 24.2841 255.921 24.4503 256.305 24.6932C256.692 24.9361 257.01 25.2834 257.257 25.7351C257.504 26.1825 257.628 26.7642 257.628 27.4801V34H255.761V32.6577H255.685C255.561 32.9048 255.376 33.1477 255.129 33.3864C254.881 33.625 254.564 33.8232 254.176 33.9808C253.788 34.1385 253.324 34.2173 252.783 34.2173ZM253.198 32.6832C253.727 32.6832 254.178 32.5788 254.553 32.37C254.933 32.1612 255.22 31.8885 255.416 31.5518C255.616 31.2109 255.717 30.8466 255.717 30.4588V29.1932C255.648 29.2614 255.516 29.3253 255.32 29.3849C255.129 29.4403 254.909 29.4893 254.662 29.532C254.415 29.5703 254.174 29.6065 253.94 29.6406C253.705 29.6705 253.509 29.696 253.352 29.7173C252.981 29.7642 252.642 29.843 252.335 29.9538C252.033 30.0646 251.79 30.2244 251.607 30.4332C251.428 30.6378 251.338 30.9105 251.338 31.2514C251.338 31.7244 251.513 32.0824 251.862 32.3253C252.212 32.5639 252.657 32.6832 253.198 32.6832ZM258.956 25.831V24.1818H267.24V25.831H264.037V34H262.171V25.831H258.956ZM270.7 27.5568H273.55C274.752 27.5568 275.677 27.8551 276.325 28.4517C276.972 29.0483 277.296 29.8175 277.296 30.7592C277.296 31.3729 277.151 31.9247 276.862 32.4148C276.572 32.9048 276.148 33.2926 275.589 33.5781C275.031 33.8594 274.352 34 273.55 34H269.261V24.1818H271.134V32.3509H273.55C274.1 32.3509 274.552 32.2081 274.906 31.9226C275.259 31.6328 275.436 31.2642 275.436 30.8168C275.436 30.3437 275.259 29.9581 274.906 29.6598C274.552 29.3572 274.1 29.206 273.55 29.206H270.7V27.5568ZM283.575 34.1982C282.624 34.1982 281.806 33.983 281.12 33.5526C280.438 33.1179 279.914 32.5192 279.548 31.7564C279.181 30.9936 278.998 30.12 278.998 29.1357C278.998 28.1385 279.186 27.2585 279.561 26.4957C279.936 25.7287 280.464 25.13 281.146 24.6996C281.828 24.2692 282.631 24.054 283.556 24.054C284.301 24.054 284.966 24.1925 285.55 24.4695C286.134 24.7422 286.605 25.1257 286.963 25.62C287.325 26.1143 287.54 26.6918 287.608 27.3523H285.748C285.646 26.892 285.411 26.4957 285.045 26.1634C284.683 25.831 284.197 25.6648 283.588 25.6648C283.055 25.6648 282.588 25.8054 282.188 26.0866C281.791 26.3636 281.482 26.7599 281.261 27.2756C281.039 27.7869 280.928 28.392 280.928 29.0909C280.928 29.8068 281.037 30.4247 281.254 30.9446C281.472 31.4645 281.779 31.8672 282.175 32.1527C282.575 32.4382 283.046 32.581 283.588 32.581C283.95 32.581 284.278 32.5149 284.572 32.3828C284.87 32.2464 285.119 32.0526 285.32 31.8011C285.524 31.5497 285.667 31.2472 285.748 30.8935H287.608C287.54 31.5284 287.333 32.0952 286.988 32.5938C286.643 33.0923 286.181 33.4844 285.601 33.7699C285.026 34.0554 284.35 34.1982 283.575 34.1982ZM295.507 34V25.8118H293.155C292.597 25.8118 292.162 25.9418 291.851 26.2017C291.54 26.4616 291.384 26.8026 291.384 27.2244C291.384 27.642 291.527 27.9787 291.812 28.2344C292.102 28.4858 292.507 28.6115 293.027 28.6115H296.063V30.1584H293.027C292.303 30.1584 291.676 30.0391 291.148 29.8004C290.624 29.5575 290.219 29.2145 289.933 28.7713C289.652 28.3281 289.511 27.804 289.511 27.1989C289.511 26.581 289.656 26.0483 289.946 25.6009C290.24 25.1491 290.66 24.7997 291.205 24.5526C291.755 24.3054 292.405 24.1818 293.155 24.1818H297.303V34H295.507ZM289.064 34L291.832 29.0398H293.788L291.02 34H289.064Z" fill="white"/>
</svg>
