<svg width="81" height="83" viewBox="0 0 81 83" fill="none" xmlns="http://www.w3.org/2000/svg">
<path d="M58.504 82.563C58.5388 82.837 58.7891 83.0308 59.0631 82.996L63.5271 82.4285C63.8011 82.3937 63.9949 82.1434 63.9601 81.8695C63.9253 81.5955 63.675 81.4017 63.401 81.4365L59.433 81.9409L58.9285 77.9729C58.8937 77.6989 58.6434 77.5051 58.3695 77.5399C58.0955 77.5747 57.9017 77.825 57.9365 78.099L58.504 82.563ZM0.5 1C15.357 1 29.6331 1.96789 41.8851 4.45097C54.1468 6.93605 64.326 10.9281 71.0416 16.9352C77.7271 22.9152 81.0127 30.9191 79.4584 41.5606C77.8984 52.2406 71.4583 65.5964 58.6047 82.1939L59.3953 82.8061C72.2917 66.1536 78.8516 52.6344 80.4479 41.7051C82.0498 30.7371 78.6479 22.3973 71.7084 16.1898C64.799 10.0094 54.4157 5.9702 42.0837 3.4709C29.7419 0.969611 15.393 0 0.5 0V1Z" fill="#203845"/>
</svg>
